<svg width="286" height="253" viewBox="0 0 286 253" fill="none" xmlns="http://www.w3.org/2000/svg">
<mask id="path-1-inside-1_2077_451" fill="white">
<path d="M15.035 178.075H4.171V167.89H15.035V178.075ZM15.035 229H4.171V181.761H15.035V229ZM42.6989 181.858C53.9509 181.858 62.9719 190.685 62.9719 201.84V229.097H52.5929V201.84C52.5929 196.505 48.0339 192.237 42.6989 192.237C37.1699 192.237 32.9019 196.699 32.9019 201.84V229.097H22.5229V181.858H32.9019V183.895C35.9089 182.828 39.0129 181.858 42.6989 181.858ZM72.7621 215.614V192.14H66.2631V181.761H72.7621V167.89H83.1411V181.761H92.0651V192.14H83.1411V215.614C83.1411 217.069 84.8871 218.815 86.9241 218.815H92.0651V229H86.9241C79.2611 229 72.7621 222.695 72.7621 215.614ZM117.891 181.858C130.986 181.858 141.656 192.334 141.656 205.526C141.656 218.524 130.986 229 117.891 229C104.505 229 94.0294 218.524 94.0294 205.526C94.0294 192.334 104.505 181.858 117.891 181.858ZM117.891 218.621C125.263 218.621 131.277 212.704 131.277 205.526C131.277 198.057 125.263 192.237 117.891 192.237C110.325 192.237 104.408 198.057 104.408 205.526C104.408 212.704 110.325 218.621 117.891 218.621ZM167.498 229C156.246 229 147.322 220.27 147.322 209.115V181.858H157.701V209.115C157.701 214.45 162.163 218.621 167.498 218.621C173.027 218.621 177.392 214.256 177.392 209.115V181.858H187.771V229H177.392V226.963C174.385 228.03 171.281 229 167.498 229ZM213.472 192.237C206.003 192.237 199.892 198.057 199.892 205.526C199.892 212.801 206.003 218.621 213.472 218.621C217.837 218.621 222.008 216.487 224.433 212.995H236.655L234.036 217.457C229.671 224.635 221.911 229 213.472 229C200.28 229 189.513 218.524 189.513 205.526C189.513 192.334 200.28 181.858 213.472 181.858C221.911 181.858 229.671 186.223 234.036 193.498L236.655 197.96H224.433C222.008 194.468 217.837 192.237 213.472 192.237ZM261.292 181.761C272.253 181.761 281.371 190.879 281.371 201.84V229.097H270.992V201.84C270.992 196.893 266.724 192.237 261.292 192.237C256.151 192.237 251.592 196.699 251.592 201.84V229.097H241.213V168.084H251.592V183.895C254.599 182.634 257.8 181.761 261.292 181.761Z"/>
</mask>
<path d="M15.035 178.075H4.171V167.89H15.035V178.075ZM15.035 229H4.171V181.761H15.035V229ZM42.6989 181.858C53.9509 181.858 62.9719 190.685 62.9719 201.84V229.097H52.5929V201.84C52.5929 196.505 48.0339 192.237 42.6989 192.237C37.1699 192.237 32.9019 196.699 32.9019 201.84V229.097H22.5229V181.858H32.9019V183.895C35.9089 182.828 39.0129 181.858 42.6989 181.858ZM72.7621 215.614V192.14H66.2631V181.761H72.7621V167.89H83.1411V181.761H92.0651V192.14H83.1411V215.614C83.1411 217.069 84.8871 218.815 86.9241 218.815H92.0651V229H86.9241C79.2611 229 72.7621 222.695 72.7621 215.614ZM117.891 181.858C130.986 181.858 141.656 192.334 141.656 205.526C141.656 218.524 130.986 229 117.891 229C104.505 229 94.0294 218.524 94.0294 205.526C94.0294 192.334 104.505 181.858 117.891 181.858ZM117.891 218.621C125.263 218.621 131.277 212.704 131.277 205.526C131.277 198.057 125.263 192.237 117.891 192.237C110.325 192.237 104.408 198.057 104.408 205.526C104.408 212.704 110.325 218.621 117.891 218.621ZM167.498 229C156.246 229 147.322 220.27 147.322 209.115V181.858H157.701V209.115C157.701 214.45 162.163 218.621 167.498 218.621C173.027 218.621 177.392 214.256 177.392 209.115V181.858H187.771V229H177.392V226.963C174.385 228.03 171.281 229 167.498 229ZM213.472 192.237C206.003 192.237 199.892 198.057 199.892 205.526C199.892 212.801 206.003 218.621 213.472 218.621C217.837 218.621 222.008 216.487 224.433 212.995H236.655L234.036 217.457C229.671 224.635 221.911 229 213.472 229C200.28 229 189.513 218.524 189.513 205.526C189.513 192.334 200.28 181.858 213.472 181.858C221.911 181.858 229.671 186.223 234.036 193.498L236.655 197.96H224.433C222.008 194.468 217.837 192.237 213.472 192.237ZM261.292 181.761C272.253 181.761 281.371 190.879 281.371 201.84V229.097H270.992V201.84C270.992 196.893 266.724 192.237 261.292 192.237C256.151 192.237 251.592 196.699 251.592 201.84V229.097H241.213V168.084H251.592V183.895C254.599 182.634 257.8 181.761 261.292 181.761Z" fill="white"/>
<path d="M15.035 178.075V179.075H16.035V178.075H15.035ZM4.171 178.075H3.171V179.075H4.171V178.075ZM4.171 167.89V166.89H3.171V167.89H4.171ZM15.035 167.89H16.035V166.89H15.035V167.89ZM15.035 229V230H16.035V229H15.035ZM4.171 229H3.171V230H4.171V229ZM4.171 181.761V180.761H3.171V181.761H4.171ZM15.035 181.761H16.035V180.761H15.035V181.761ZM15.035 177.075H4.171V179.075H15.035V177.075ZM5.171 178.075V167.89H3.171V178.075H5.171ZM4.171 168.89H15.035V166.89H4.171V168.89ZM14.035 167.89V178.075H16.035V167.89H14.035ZM15.035 228H4.171V230H15.035V228ZM5.171 229V181.761H3.171V229H5.171ZM4.171 182.761H15.035V180.761H4.171V182.761ZM14.035 181.761V229H16.035V181.761H14.035ZM62.9719 229.097V230.097H63.9719V229.097H62.9719ZM52.5929 229.097H51.5929V230.097H52.5929V229.097ZM32.9019 229.097V230.097H33.9019V229.097H32.9019ZM22.5229 229.097H21.5229V230.097H22.5229V229.097ZM22.5229 181.858V180.858H21.5229V181.858H22.5229ZM32.9019 181.858H33.9019V180.858H32.9019V181.858ZM32.9019 183.895H31.9019V185.311L33.2364 184.837L32.9019 183.895ZM42.6989 182.858C53.4145 182.858 61.9719 191.253 61.9719 201.84H63.9719C63.9719 190.117 54.4874 180.858 42.6989 180.858V182.858ZM61.9719 201.84V229.097H63.9719V201.84H61.9719ZM62.9719 228.097H52.5929V230.097H62.9719V228.097ZM53.5929 229.097V201.84H51.5929V229.097H53.5929ZM53.5929 201.84C53.5929 195.914 48.5471 191.237 42.6989 191.237V193.237C47.5208 193.237 51.5929 197.096 51.5929 201.84H53.5929ZM42.6989 191.237C36.6177 191.237 31.9019 196.147 31.9019 201.84H33.9019C33.9019 197.251 37.7222 193.237 42.6989 193.237V191.237ZM31.9019 201.84V229.097H33.9019V201.84H31.9019ZM32.9019 228.097H22.5229V230.097H32.9019V228.097ZM23.5229 229.097V181.858H21.5229V229.097H23.5229ZM22.5229 182.858H32.9019V180.858H22.5229V182.858ZM31.9019 181.858V183.895H33.9019V181.858H31.9019ZM33.2364 184.837C36.2232 183.778 39.1925 182.858 42.6989 182.858V180.858C38.8333 180.858 35.5947 181.878 32.5675 182.953L33.2364 184.837ZM72.7621 192.14H73.7621V191.14H72.7621V192.14ZM66.2631 192.14H65.2631V193.14H66.2631V192.14ZM66.2631 181.761V180.761H65.2631V181.761H66.2631ZM72.7621 181.761V182.761H73.7621V181.761H72.7621ZM72.7621 167.89V166.89H71.7621V167.89H72.7621ZM83.1411 167.89H84.1411V166.89H83.1411V167.89ZM83.1411 181.761H82.1411V182.761H83.1411V181.761ZM92.0651 181.761H93.0651V180.761H92.0651V181.761ZM92.0651 192.14V193.14H93.0651V192.14H92.0651ZM83.1411 192.14V191.14H82.1411V192.14H83.1411ZM92.0651 218.815H93.0651V217.815H92.0651V218.815ZM92.0651 229V230H93.0651V229H92.0651ZM73.7621 215.614V192.14H71.7621V215.614H73.7621ZM72.7621 191.14H66.2631V193.14H72.7621V191.14ZM67.2631 192.14V181.761H65.2631V192.14H67.2631ZM66.2631 182.761H72.7621V180.761H66.2631V182.761ZM73.7621 181.761V167.89H71.7621V181.761H73.7621ZM72.7621 168.89H83.1411V166.89H72.7621V168.89ZM82.1411 167.89V181.761H84.1411V167.89H82.1411ZM83.1411 182.761H92.0651V180.761H83.1411V182.761ZM91.0651 181.761V192.14H93.0651V181.761H91.0651ZM92.0651 191.14H83.1411V193.14H92.0651V191.14ZM82.1411 192.14V215.614H84.1411V192.14H82.1411ZM82.1411 215.614C82.1411 216.717 82.7779 217.768 83.602 218.505C84.4459 219.26 85.6215 219.815 86.9241 219.815V217.815C86.1897 217.815 85.4738 217.497 84.9355 217.015C84.3774 216.515 84.1411 215.966 84.1411 215.614H82.1411ZM86.9241 219.815H92.0651V217.815H86.9241V219.815ZM91.0651 218.815V229H93.0651V218.815H91.0651ZM92.0651 228H86.9241V230H92.0651V228ZM86.9241 228C79.7676 228 73.7621 222.098 73.7621 215.614H71.7621C71.7621 223.292 78.7547 230 86.9241 230V228ZM117.891 182.858C130.442 182.858 140.656 192.894 140.656 205.526H142.656C142.656 191.774 131.531 180.858 117.891 180.858V182.858ZM140.656 205.526C140.656 217.958 130.448 228 117.891 228V230C131.525 230 142.656 219.09 142.656 205.526H140.656ZM117.891 228C105.047 228 95.0294 217.961 95.0294 205.526H93.0294C93.0294 219.087 103.964 230 117.891 230V228ZM95.0294 205.526C95.0294 192.892 105.052 182.858 117.891 182.858V180.858C103.958 180.858 93.0294 191.776 93.0294 205.526H95.0294ZM117.891 219.621C125.797 219.621 132.277 213.275 132.277 205.526H130.277C130.277 212.133 124.73 217.621 117.891 217.621V219.621ZM132.277 205.526C132.277 197.491 125.801 191.237 117.891 191.237V193.237C124.725 193.237 130.277 198.623 130.277 205.526H132.277ZM117.891 191.237C109.787 191.237 103.408 197.491 103.408 205.526H105.408C105.408 198.623 110.863 193.237 117.891 193.237V191.237ZM103.408 205.526C103.408 213.275 109.792 219.621 117.891 219.621V217.621C110.859 217.621 105.408 212.133 105.408 205.526H103.408ZM147.322 181.858V180.858H146.322V181.858H147.322ZM157.701 181.858H158.701V180.858H157.701V181.858ZM177.392 181.858V180.858H176.392V181.858H177.392ZM187.771 181.858H188.771V180.858H187.771V181.858ZM187.771 229V230H188.771V229H187.771ZM177.392 229H176.392V230H177.392V229ZM177.392 226.963H178.392V225.547L177.057 226.021L177.392 226.963ZM167.498 228C156.782 228 148.322 219.702 148.322 209.115H146.322C146.322 220.838 155.709 230 167.498 230V228ZM148.322 209.115V181.858H146.322V209.115H148.322ZM147.322 182.858H157.701V180.858H147.322V182.858ZM156.701 181.858V209.115H158.701V181.858H156.701ZM156.701 209.115C156.701 215.041 161.65 219.621 167.498 219.621V217.621C162.675 217.621 158.701 213.859 158.701 209.115H156.701ZM167.498 219.621C173.553 219.621 178.392 214.834 178.392 209.115H176.392C176.392 213.678 172.501 217.621 167.498 217.621V219.621ZM178.392 209.115V181.858H176.392V209.115H178.392ZM177.392 182.858H187.771V180.858H177.392V182.858ZM186.771 181.858V229H188.771V181.858H186.771ZM187.771 228H177.392V230H187.771V228ZM178.392 229V226.963H176.392V229H178.392ZM177.057 226.021C174.073 227.079 171.103 228 167.498 228V230C171.459 230 174.696 228.981 177.726 227.905L177.057 226.021ZM224.433 212.995V211.995H223.91L223.612 212.425L224.433 212.995ZM236.655 212.995L237.517 213.501L238.401 211.995H236.655V212.995ZM234.036 217.457L234.89 217.977L234.894 217.97L234.898 217.963L234.036 217.457ZM234.036 193.498L234.898 192.992L234.893 192.984L234.036 193.498ZM236.655 197.96V198.96H238.401L237.517 197.454L236.655 197.96ZM224.433 197.96L223.612 198.53L223.91 198.96H224.433V197.96ZM213.472 191.237C205.479 191.237 198.892 197.477 198.892 205.526H200.892C200.892 198.637 206.527 193.237 213.472 193.237V191.237ZM198.892 205.526C198.892 213.391 205.489 219.621 213.472 219.621V217.621C206.517 217.621 200.892 212.211 200.892 205.526H198.892ZM213.472 219.621C218.152 219.621 222.636 217.336 225.254 213.565L223.612 212.425C221.38 215.638 217.522 217.621 213.472 217.621V219.621ZM224.433 213.995H236.655V211.995H224.433V213.995ZM235.793 212.489L233.174 216.951L234.898 217.963L237.517 213.501L235.793 212.489ZM233.182 216.937C228.998 223.816 221.563 228 213.472 228V230C222.259 230 230.344 225.454 234.89 217.977L233.182 216.937ZM213.472 228C200.811 228 190.513 217.951 190.513 205.526H188.513C188.513 219.097 199.749 230 213.472 230V228ZM190.513 205.526C190.513 192.902 200.816 182.858 213.472 182.858V180.858C199.744 180.858 188.513 191.766 188.513 205.526H190.513ZM213.472 182.858C221.561 182.858 228.995 187.04 233.179 194.012L234.893 192.984C230.347 185.406 222.261 180.858 213.472 180.858V182.858ZM233.174 194.004L235.793 198.466L237.517 197.454L234.898 192.992L233.174 194.004ZM236.655 196.96H224.433V198.96H236.655V196.96ZM225.254 197.39C222.644 193.631 218.168 191.237 213.472 191.237V193.237C217.506 193.237 221.372 195.305 223.612 198.53L225.254 197.39ZM281.371 229.097V230.097H282.371V229.097H281.371ZM270.992 229.097H269.992V230.097H270.992V229.097ZM251.592 229.097V230.097H252.592V229.097H251.592ZM241.213 229.097H240.213V230.097H241.213V229.097ZM241.213 168.084V167.084H240.213V168.084H241.213ZM251.592 168.084H252.592V167.084H251.592V168.084ZM251.592 183.895H250.592V185.399L251.979 184.817L251.592 183.895ZM261.292 182.761C271.701 182.761 280.371 191.431 280.371 201.84H282.371C282.371 190.327 272.806 180.761 261.292 180.761V182.761ZM280.371 201.84V229.097H282.371V201.84H280.371ZM281.371 228.097H270.992V230.097H281.371V228.097ZM271.992 229.097V201.84H269.992V229.097H271.992ZM271.992 201.84C271.992 196.36 267.296 191.237 261.292 191.237V193.237C266.153 193.237 269.992 197.426 269.992 201.84H271.992ZM261.292 191.237C255.612 191.237 250.592 196.134 250.592 201.84H252.592C252.592 197.264 256.691 193.237 261.292 193.237V191.237ZM250.592 201.84V229.097H252.592V201.84H250.592ZM251.592 228.097H241.213V230.097H251.592V228.097ZM242.213 229.097V168.084H240.213V229.097H242.213ZM241.213 169.084H251.592V167.084H241.213V169.084ZM250.592 168.084V183.895H252.592V168.084H250.592ZM251.979 184.817C254.905 183.59 257.971 182.761 261.292 182.761V180.761C257.629 180.761 254.294 181.678 251.206 182.973L251.979 184.817Z" fill="black" mask="url(#path-1-inside-1_2077_451)"/>
<path d="M98.4167 14.7083C98.4167 22.8315 91.831 29.4167 83.7083 29.4167C75.5849 29.4167 69 22.8315 69 14.7083C69 6.58514 75.5849 0 83.7083 0C91.831 0 98.4167 6.58514 98.4167 14.7083Z" fill="white"/>
<path d="M157.25 14.7083C157.25 22.8315 150.664 29.4167 142.542 29.4167C134.418 29.4167 127.833 22.8315 127.833 14.7083C127.833 6.58514 134.418 0 142.542 0C150.664 0 157.25 6.58514 157.25 14.7083Z" fill="white"/>
<path fill-rule="evenodd" clip-rule="evenodd" d="M201.375 23.901C206.451 23.901 210.568 19.7854 210.568 14.7083C210.568 9.63131 206.451 5.51563 201.375 5.51563C196.298 5.51563 192.182 9.63131 192.182 14.7083C192.182 19.7854 196.298 23.901 201.375 23.901ZM201.375 29.4167C209.498 29.4167 216.083 22.8315 216.083 14.7083C216.083 6.58514 209.498 0 201.375 0C193.251 0 186.667 6.58514 186.667 14.7083C186.667 22.8315 193.251 29.4167 201.375 29.4167Z" fill="white"/>
<path d="M98.4167 73.5416C98.4167 81.665 91.831 88.2499 83.7083 88.2499C75.5849 88.2499 69 81.665 69 73.5416C69 65.4182 75.5849 58.8333 83.7083 58.8333C91.831 58.8333 98.4167 65.4182 98.4167 73.5416Z" fill="white"/>
<path d="M157.25 73.5416C157.25 81.665 150.664 88.2499 142.542 88.2499C134.418 88.2499 127.833 81.665 127.833 73.5416C127.833 65.4182 134.418 58.8333 142.542 58.8333C150.664 58.8333 157.25 65.4182 157.25 73.5416Z" fill="white"/>
<path d="M216.083 73.5416C216.083 81.665 209.498 88.2499 201.375 88.2499C193.251 88.2499 186.667 81.665 186.667 73.5416C186.667 65.4182 193.251 58.8333 201.375 58.8333C209.498 58.8333 216.083 65.4182 216.083 73.5416Z" fill="white"/>
<path d="M98.4167 132.375C98.4167 140.498 91.831 147.083 83.7083 147.083C75.5849 147.083 69 140.498 69 132.375C69 124.251 75.5849 117.667 83.7083 117.667C91.831 117.667 98.4167 124.251 98.4167 132.375Z" fill="white"/>
<path d="M157.25 132.375C157.25 140.498 150.664 147.083 142.542 147.083C134.418 147.083 127.833 140.498 127.833 132.375C127.833 124.251 134.418 117.667 142.542 117.667C150.664 117.667 157.25 124.251 157.25 132.375Z" fill="white"/>
<path d="M216.083 132.375C216.083 140.498 209.498 147.083 201.375 147.083C193.251 147.083 186.667 140.498 186.667 132.375C186.667 124.251 193.251 117.667 201.375 117.667C209.498 117.667 216.083 124.251 216.083 132.375Z" fill="white"/>
</svg>
